<svg width="21" height="20" viewBox="0 0 21 20" fill="none" xmlns="http://www.w3.org/2000/svg">
<path fill-rule="evenodd" clip-rule="evenodd" d="M3.98149 5.96297C5.10651 5.96297 6.01851 5.05096 6.01851 3.92594C6.01851 2.80092 5.10651 1.88892 3.98149 1.88892C2.85647 1.88892 1.94446 2.80092 1.94446 3.92594C1.94446 5.05096 2.85647 5.96297 3.98149 5.96297ZM3.98149 6.96297C5.49689 6.96297 6.75306 5.85307 6.98145 4.40183V4.4259H10.0146C10.2907 4.4259 10.5146 4.64976 10.5146 4.9259V15.074C10.5146 15.3502 10.2907 15.574 10.0146 15.574H6.98145V15.5981C6.75306 14.1469 5.49689 13.037 3.98149 13.037C2.30418 13.037 0.944458 14.3967 0.944458 16.074C0.944458 17.7513 2.30418 19.111 3.98149 19.111C5.49689 19.111 6.75306 18.0011 6.98145 16.5499V16.574H10.0146C10.843 16.574 11.5146 15.9024 11.5146 15.074V10.5H14.9299C15.1683 11.9394 16.4189 13.0371 17.9259 13.0371C19.6032 13.0371 20.963 11.6773 20.963 10C20.963 8.32274 19.6032 6.96301 17.9259 6.96301C16.419 6.96301 15.1684 8.0606 14.9299 9.49996H11.5146V4.9259C11.5146 4.09748 10.843 3.4259 10.0146 3.4259H6.98145V3.45005C6.75306 1.99881 5.49689 0.888916 3.98149 0.888916C2.30418 0.888916 0.944458 2.24864 0.944458 3.92594C0.944458 5.60325 2.30418 6.96297 3.98149 6.96297ZM6.01851 16.074C6.01851 17.199 5.10651 18.111 3.98149 18.111C2.85647 18.111 1.94446 17.199 1.94446 16.074C1.94446 14.949 2.85647 14.037 3.98149 14.037C5.10651 14.037 6.01851 14.949 6.01851 16.074ZM19.963 10C19.963 11.1251 19.051 12.0371 17.9259 12.0371C16.8009 12.0371 15.8889 11.1251 15.8889 10C15.8889 8.87502 16.8009 7.96301 17.9259 7.96301C19.051 7.96301 19.963 8.87502 19.963 10Z" fill="#595A60"/>
</svg>
