<svg width="10" height="18" viewBox="0 0 10 18" fill="none" xmlns="http://www.w3.org/2000/svg">
<path fill-rule="evenodd" clip-rule="evenodd" d="M7.67099 14.7857C7.67099 16.0154 6.67416 17.0122 5.44451 17.0122C4.21486 17.0122 3.21803 16.0154 3.21803 14.7857C3.21803 13.5561 4.21486 12.5592 5.44451 12.5592C6.67416 12.5592 7.67099 13.5561 7.67099 14.7857ZM8.65879 14.7857C8.65879 16.5609 7.21971 18 5.44451 18C3.66931 18 2.23022 16.5609 2.23022 14.7857C2.23022 13.2109 3.36272 11.9006 4.85771 11.6249L4.85783 7.91862L1.53125 7.91862C1.31764 7.91862 1.12125 7.79443 1.01797 7.59305C0.913903 7.3925 0.920944 7.14748 1.03518 6.95449L4.94815 0.294524C5.05535 0.11076 5.24313 4.11003e-07 5.44422 3.93423e-07C5.64609 3.75775e-07 5.83309 0.11076 5.94107 0.294524L9.85404 6.95449C9.96828 7.14748 9.97454 7.3925 9.87126 7.59305C9.76798 7.79443 9.57158 7.91862 9.3572 7.91862L6.03148 7.91862L6.03137 11.6249C7.52633 11.9007 8.65879 13.2109 8.65879 14.7857ZM8.29386 6.65996L2.59536 6.65997L5.44422 1.81079L8.29386 6.65996Z" fill="#595A60"/>
</svg>
