<svg width="18" height="18" viewBox="0 0 18 18" fill="none" xmlns="http://www.w3.org/2000/svg">
<path fill-rule="evenodd" clip-rule="evenodd" d="M7.06742 11.3197L7.17428 11.3197L7.41112 11.3203C9.42264 11.3312 14.1348 11.5159 14.1348 14.6566C14.1348 17.5685 10.2648 17.9576 7.2544 17.9723L6.72372 17.972C4.7122 17.9612 0 17.7765 0 14.6367C0 11.6632 4.03301 11.3197 7.06742 11.3197ZM7.06742 12.6795C3.27127 12.6795 1.34583 13.3385 1.34583 14.6367C1.34583 15.9475 3.27127 16.6129 7.06742 16.6129C10.8636 16.6129 12.789 15.9539 12.789 14.6566C12.789 13.3439 10.8636 12.6795 7.06742 12.6795ZM15.4359 5.39335C15.8074 5.39335 16.1088 5.69795 16.1088 6.07325L16.1087 7.21032L17.2715 7.21105C17.643 7.21105 17.9444 7.51564 17.9444 7.89095C17.9444 8.26626 17.643 8.57085 17.2715 8.57085L16.1087 8.57013L16.1088 9.70937C16.1088 10.0847 15.8074 10.3893 15.4359 10.3893C15.0645 10.3893 14.763 10.0847 14.763 9.70937L14.7629 8.57013L13.6019 8.57085C13.2304 8.57085 12.929 8.26626 12.929 7.89095C12.929 7.51564 13.2304 7.21105 13.6019 7.21105L14.7629 7.21032L14.763 6.07325C14.763 5.69795 15.0645 5.39335 15.4359 5.39335ZM7.06742 0.027832C9.69897 0.027832 11.8388 2.19083 11.8388 4.84879C11.8388 7.50676 9.69897 9.66976 7.06742 9.66976H7.03961C5.76645 9.66522 4.57314 9.16028 3.67861 8.25012C2.78318 7.33905 2.2924 6.12973 2.29686 4.84607C2.29686 2.19083 4.43676 0.027832 7.06742 0.027832ZM7.06742 1.38764C5.17966 1.38764 3.6427 2.94053 3.6427 4.84879C3.63913 5.77255 3.99084 6.6383 4.63236 7.29191C5.27477 7.94462 6.13072 8.30632 7.0423 8.30995L7.06742 8.9817V8.30995C8.95607 8.30995 10.493 6.75705 10.493 4.84879C10.493 2.94053 8.95607 1.38764 7.06742 1.38764Z" fill="white"/>
</svg>
