<svg width="15" height="18" viewBox="0 0 15 18" fill="none" xmlns="http://www.w3.org/2000/svg">
<path fill-rule="evenodd" clip-rule="evenodd" d="M7.51112 0.00158997C10.13 0.00158997 12.2627 2.14162 12.2627 4.77212L12.2626 6.19094C13.8547 6.74693 15 8.26781 15 10.0527V13.9125C15 16.1668 13.1731 18 10.9265 18H4.07354C1.82691 18 0 16.1668 0 13.9125V10.0527C0 8.26815 1.14486 6.74751 2.73651 6.19126L2.73713 4.77212C2.74251 3.47622 3.24206 2.28021 4.14341 1.38388C5.04565 0.486652 6.23668 -0.0326074 7.51112 0.00158997ZM10.9265 7.31514H4.07354C2.56861 7.31514 1.34529 8.54264 1.34529 10.0527V13.9125C1.34529 15.4226 2.56861 16.6501 4.07354 16.6501H10.9265C12.4305 16.6501 13.6547 15.4226 13.6547 13.9125V10.0527C13.6547 8.54264 12.4305 7.31514 10.9265 7.31514ZM7.49982 10.3081C7.87112 10.3081 8.17247 10.6105 8.17247 10.9831V12.9818C8.17247 13.3544 7.87112 13.6568 7.49982 13.6568C7.12852 13.6568 6.82717 13.3544 6.82717 12.9818V10.9831C6.82717 10.6105 7.12852 10.3081 7.49982 10.3081ZM7.50843 1.35148H7.49408C6.58556 1.35148 5.73444 1.70246 5.09139 2.34231C4.44386 2.98486 4.08601 3.84249 4.08242 4.75682L4.08161 5.96473H10.9166L10.9174 4.77212C10.9174 2.88586 9.38825 1.35148 7.50843 1.35148Z" fill="#595A60"/>
</svg>
