<svg width="20" height="18" viewBox="0 0 20 18" fill="none" xmlns="http://www.w3.org/2000/svg">
<path fill-rule="evenodd" clip-rule="evenodd" d="M14.4237 0C17.4681 0 19.9445 2.52543 19.9445 5.63104V12.369C19.9445 15.4736 17.4681 18 14.4237 18H6.46614C3.42176 18 0.944458 15.4736 0.944458 12.369V5.63104C0.944458 2.52543 3.42176 0 6.46614 0H14.4237ZM14.4237 1.40823H6.46614C4.18308 1.40823 2.32534 3.30277 2.32534 5.63104V12.369C2.32534 14.6972 4.18308 16.5918 6.46614 16.5918H14.4237C16.7068 16.5918 18.5636 14.6972 18.5636 12.369V12.1061L15.5276 12.1066C13.7812 12.1066 12.3598 10.6581 12.3589 8.87805C12.3589 7.09617 13.7803 5.64663 15.5276 5.64569L18.5636 5.64513V5.63104C18.5636 3.30277 16.7068 1.40823 14.4237 1.40823ZM18.5636 7.05336L15.5276 7.05392C14.5416 7.05486 13.7398 7.87257 13.7398 8.87711C13.7398 9.88071 14.5425 10.6984 15.5276 10.6984L18.5636 10.6979V7.05336ZM15.9488 8.11479C16.33 8.11479 16.6393 8.43023 16.6393 8.8189C16.6393 9.20757 16.33 9.52302 15.9488 9.52302H15.6616C15.2805 9.52302 14.9712 9.20757 14.9712 8.8189C14.9712 8.43023 15.2805 8.11479 15.6616 8.11479H15.9488ZM10.7809 4.26046C11.1621 4.26046 11.4714 4.5759 11.4714 4.96457C11.4714 5.35325 11.1621 5.66869 10.7809 5.66869H5.81068C5.42956 5.66869 5.12024 5.35325 5.12024 4.96457C5.12024 4.5759 5.42956 4.26046 5.81068 4.26046H10.7809Z" fill="#595A60"/>
</svg>
