<svg width="19" height="20" viewBox="0 0 19 20" fill="none" xmlns="http://www.w3.org/2000/svg">
<path fill-rule="evenodd" clip-rule="evenodd" d="M10.1156 0C10.821 0 11.5067 0.28377 11.9984 0.77699C12.489 1.2731 12.7599 1.95357 12.7393 2.64369C12.7412 2.79909 12.7934 2.97862 12.888 3.13595C13.0447 3.39655 13.292 3.57994 13.5856 3.65523C13.8792 3.72665 14.1865 3.68805 14.4476 3.53651C15.7087 2.83094 17.3136 3.2537 18.0338 4.47951L18.6476 5.52097C18.6634 5.54896 18.6772 5.57599 18.689 5.60398C19.3412 6.81145 18.9058 8.33164 17.6939 9.02563C17.5176 9.12504 17.3747 9.26403 17.2762 9.43198C17.1235 9.69162 17.0811 10.0005 17.158 10.2843C17.2368 10.5738 17.425 10.8141 17.69 10.9628C18.288 11.2996 18.7343 11.8672 18.9127 12.5226C19.091 13.177 18.9934 13.8874 18.6457 14.4732L17.9915 15.5408C17.2713 16.7531 15.6664 17.1729 14.4181 16.4664C14.2516 16.3728 14.0595 16.3216 13.8683 16.3168H13.8624C13.5777 16.3168 13.2851 16.4355 13.0723 16.643C12.8565 16.8544 12.7383 17.1362 12.7402 17.4355C12.7333 18.8533 11.556 20 10.1156 20H8.88112C7.43383 20 6.25648 18.8475 6.25648 17.4297C6.25451 17.255 6.20328 17.0735 6.10771 16.9162C5.95303 16.6517 5.70279 16.4625 5.41412 16.3872C5.12742 16.312 4.81313 16.3535 4.555 16.5002C3.93628 16.838 3.2082 16.92 2.54219 16.7366C1.87717 16.5523 1.30278 16.1044 0.965834 15.5108L0.350069 14.4713C-0.370129 13.2474 0.0584432 11.679 1.30574 10.9724C1.65943 10.7726 1.87914 10.4001 1.87914 10.0005C1.87914 9.60089 1.65943 9.22735 1.30574 9.02756C0.057458 8.31717 -0.370129 6.74485 0.349084 5.52097L1.01707 4.4467C1.72741 3.23633 3.33333 2.80971 4.58554 3.51431C4.75599 3.61373 4.94121 3.66392 5.12939 3.66585C5.74318 3.66585 6.25648 3.16973 6.26633 2.55972C6.26239 1.88697 6.53333 1.24125 7.02693 0.753825C7.52249 0.267362 8.18062 0 8.88112 0H10.1156ZM10.1156 1.44781H8.88112C8.5757 1.44781 8.28998 1.5646 8.07422 1.77501C7.85944 1.98639 7.7422 2.26726 7.74417 2.56648C7.72348 3.97761 6.54614 5.11365 5.12052 5.11365C4.66338 5.10883 4.22298 4.98818 3.84072 4.76425C3.30377 4.46504 2.60229 4.64939 2.288 5.18508L1.62101 6.25935C1.31559 6.77863 1.50278 7.46489 2.04662 7.77472C2.85352 8.23223 3.35697 9.08547 3.35697 10.0005C3.35697 10.9155 2.85352 11.7678 2.04465 12.2262C1.50377 12.5332 1.31657 13.2156 1.62987 13.7464L2.25155 14.7966C2.40525 15.0678 2.65648 15.2637 2.94712 15.3439C3.23677 15.423 3.55599 15.3892 3.822 15.2444C4.21313 15.0195 4.6683 14.9028 5.12545 14.9028C5.35106 14.9028 5.57668 14.9307 5.79737 14.9887C6.46338 15.1643 7.04171 15.6006 7.38456 16.1865C7.60722 16.5542 7.73038 16.9837 7.73432 17.4219C7.73432 18.0493 8.2486 18.5522 8.88112 18.5522H10.1156C10.7452 18.5522 11.2594 18.0522 11.2624 17.4355C11.2585 16.754 11.5304 16.1064 12.0279 15.6189C12.5186 15.1383 13.2043 14.8497 13.89 14.869C14.3393 14.8796 14.7718 14.9983 15.153 15.2107C15.7018 15.5186 16.4023 15.3352 16.7196 14.8043L17.3737 13.7358C17.5196 13.4897 17.5619 13.1808 17.4841 12.8961C17.4072 12.6114 17.2141 12.3643 16.954 12.2185C16.3452 11.8749 15.9107 11.3209 15.7304 10.6568C15.5521 10.0053 15.6496 9.29395 15.9974 8.70807C16.224 8.32199 16.556 7.99672 16.954 7.77279C17.488 7.46682 17.6752 6.78249 17.3649 6.2497C17.3521 6.22846 17.3402 6.20626 17.3304 6.1831L16.7531 5.20245C16.4388 4.66676 15.7393 4.48241 15.1905 4.78838C14.5974 5.13199 13.892 5.23044 13.2141 5.05574C12.5373 4.88393 11.9698 4.46407 11.6161 3.87143C11.3895 3.5008 11.2663 3.06935 11.2624 2.63018C11.2713 2.30008 11.153 2.00376 10.9383 1.78659C10.7245 1.57039 10.424 1.44781 10.1156 1.44781ZM9.5027 6.73143C11.3421 6.73143 12.8387 8.19854 12.8387 10.0006C12.8387 11.8026 11.3421 13.2678 9.5027 13.2678C7.66328 13.2678 6.16673 11.8026 6.16673 10.0006C6.16673 8.19854 7.66328 6.73143 9.5027 6.73143ZM9.5027 8.17924C8.47806 8.17924 7.64456 8.99677 7.64456 10.0006C7.64456 11.0044 8.47806 11.82 9.5027 11.82C10.5273 11.82 11.3608 11.0044 11.3608 10.0006C11.3608 8.99677 10.5273 8.17924 9.5027 8.17924Z" fill="#676874"/>
</svg>
