<svg width="20" height="20" viewBox="0 0 20 20" fill="none" xmlns="http://www.w3.org/2000/svg">
<path fill-rule="evenodd" clip-rule="evenodd" d="M8.70174 0C13.4998 0 17.4026 3.81729 17.4026 8.51024C17.4026 10.7244 16.5339 12.7438 15.1122 14.2593L19.8032 18.8805C20.065 19.1366 20.0659 19.5508 19.8041 19.8069C19.6737 19.9362 19.5012 20 19.3297 20C19.159 20 18.9874 19.9362 18.8561 19.8086L14.1314 15.1564C12.6421 16.323 10.7538 17.0214 8.70174 17.0214C3.90368 17.0214 0 13.2032 0 8.51024C0 3.81729 3.90368 0 8.70174 0ZM8.70174 1.31088C4.6426 1.31088 1.34024 4.54002 1.34024 8.51024C1.34024 12.4805 4.6426 15.7105 8.70174 15.7105C12.76 15.7105 16.0623 12.4805 16.0623 8.51024C16.0623 4.54002 12.76 1.31088 8.70174 1.31088Z" fill="#676874"/>
</svg>
