<svg width="16" height="13" viewBox="0 0 16 13" fill="none" xmlns="http://www.w3.org/2000/svg">
<path d="M15.36 11.856C14.6347 11.888 14.032 11.9147 13.552 11.936C13.0827 11.9573 12.6827 11.9787 12.352 12L11.328 12.048L11.296 11.488C11.6267 11.4453 11.872 11.376 12.032 11.28C12.2027 11.1733 12.3147 11.0133 12.368 10.8C12.432 10.5867 12.4533 10.2827 12.432 9.888L12.112 3.008L7.904 12.192H7.44L2.992 2.864C2.97067 2.82133 2.96 2.79467 2.96 2.784L2.576 8.896L2.56 9.312C2.56 10.016 2.672 10.528 2.896 10.848C3.13067 11.1573 3.49867 11.3547 4 11.44V12C3.56267 11.9893 2.832 11.984 1.808 11.984C1.104 11.984 0.613333 11.9893 0.336 12V11.44C0.805333 11.376 1.168 11.152 1.424 10.768C1.69067 10.3733 1.856 9.74933 1.92 8.896L2.368 1.936C2.02667 1.59467 1.58933 1.392 1.056 1.328L1.072 0.768H1.68C2.55467 0.768 3.168 0.736 3.52 0.672L4.112 1.024C4.144 1.344 4.336 1.872 4.688 2.608L8.176 10.032L11.904 1.936C11.8187 1.776 11.6907 1.664 11.52 1.6C11.3493 1.52533 11.1147 1.48267 10.816 1.472L10.784 0.912C11.904 0.869333 13.2533 0.8 14.832 0.704L14.848 1.28C14.5173 1.32267 14.2667 1.39733 14.096 1.504C13.936 1.6 13.824 1.75467 13.76 1.968C13.7067 2.18133 13.6907 2.48533 13.712 2.88L14.048 9.808C14.0693 10.2027 14.1173 10.5067 14.192 10.72C14.2773 10.9227 14.4053 11.0667 14.576 11.152C14.7467 11.2267 15.0027 11.2693 15.344 11.28L15.36 11.856Z" fill="white"/>
</svg>
